<svg xmlns="http://www.w3.org/2000/svg" width="30" height="21.602" viewBox="0 0 30 21.602"><defs><style>.a{fill:#ffce00;}.b{fill:#fff;}</style></defs><g transform="translate(0 -608.66)"><g transform="translate(0 608.66)"><path class="a" d="M326.615,611.752a.617.617,0,0,0,.615-.615v-1.863a.615.615,0,0,0-1.229,0v1.863A.617.617,0,0,0,326.615,611.752Z" transform="translate(-305.959 -608.66)"/><path class="a" d="M408.338,652.354a.6.6,0,0,0,.436-.184L410,650.928a.613.613,0,1,0-.873-.861l-1.223,1.242a.615.615,0,0,0,.436,1.045Z" transform="translate(-382.66 -647.35)"/><path class="a" d="M408.674,836.867a.613.613,0,1,0-.873.861l1.223,1.242a.609.609,0,0,0,.867.006.612.612,0,0,0,.006-.867Z" transform="translate(-382.566 -822.667)"/><path class="a" d="M440.647,743.26h-1.832a.615.615,0,0,0,0,1.229h1.832a.615.615,0,0,0,0-1.229Z" transform="translate(-411.261 -734.985)"/><path class="a" d="M225.918,652.17a.6.6,0,0,0,.436.184.59.59,0,0,0,.43-.178.612.612,0,0,0,.006-.867l-1.217-1.242a.613.613,0,1,0-.873.861Z" transform="translate(-210.722 -647.35)"/><path class="b" d="M22.162,680.656h-.006a4.831,4.831,0,0,0-5.57,2.3,7.458,7.458,0,0,0-2.828-.559,7.368,7.368,0,0,0-4.082,1.229,7.63,7.63,0,0,0-2.52,2.785,5.868,5.868,0,0,0-1.518-.191,5.58,5.58,0,0,0-3.984,1.66,5.734,5.734,0,0,0,3.984,9.762h8.121a7.582,7.582,0,0,0,7.494-7.057,4.677,4.677,0,0,0,2.736-1.229,5.127,5.127,0,0,0,1.6-3.111A5.069,5.069,0,0,0,22.162,680.656Zm-8.4,15.756H5.637a4.482,4.482,0,0,1,0-8.963,4.2,4.2,0,0,1,1.592.289.617.617,0,0,0,.8-.314,6.258,6.258,0,0,1,12.012,2.57A6.359,6.359,0,0,1,13.758,696.413Zm10.6-10.334v.012a3.715,3.715,0,0,1-3.123,3.258,7.617,7.617,0,0,0-3.566-5.834,3.607,3.607,0,0,1,4.107-1.691A3.842,3.842,0,0,1,24.363,686.079Z" transform="translate(0 -676.04)"/></g></g></svg>